# xmcd
#
# Track frame offsets: 
#        150
#        15733
#        40937
#        57863
#        79837
#        100776
#        118931
#        144513
#        157923
#        169532
#        192295
#        205448
#
# Disc length: 3001 seconds
#
# Revision: 0
# Processed by: cddbd v1.5.2PL0 Copyright (c) Steve Scherf et al.
# Submitted via: ExactAudioCopyFreeDBPlugin 1.0
#
DISCID=9c0bb70c
DTITLE=Bruce Katz - Solo Ride
DYEAR=2019
DGENRE=Blues
TTITLE0=Down At the Barrelhouse
TTITLE1=Crescent Crawl
TTITLE2=It Hurts Me Too
TTITLE3=Praise House
TTITLE4=Red Sneakers
TTITLE5=Dreams of Yesterday
TTITLE6=Midnight Plans
TTITLE7=Easy Living
TTITLE8=Going Places
TTITLE9=The Way to Your Heart
TTITLE10=Watermelon Thump
TTITLE11=Redemption
EXTD=
EXTT0=
EXTT1=
EXTT2=
EXTT3=
EXTT4=
EXTT5=
EXTT6=
EXTT7=
EXTT8=
EXTT9=
EXTT10=
EXTT11=
PLAYORDER=
